<?xml version="1.0" encoding="UTF-8" standalone="no"?>
<svg
   xmlns:dc="http://purl.org/dc/elements/1.1/"
   xmlns:cc="http://creativecommons.org/ns#"
   xmlns:rdf="http://www.w3.org/1999/02/22-rdf-syntax-ns#"
   xmlns:svg="http://www.w3.org/2000/svg"
   xmlns="http://www.w3.org/2000/svg"
   xmlns:sodipodi="http://sodipodi.sourceforge.net/DTD/sodipodi-0.dtd"
   xmlns:inkscape="http://www.inkscape.org/namespaces/inkscape"
   width="210mm"
   height="297mm"
   viewBox="0 0 210 297"
   version="1.1"
   id="svg8"
   inkscape:version="1.0.1 (3bc2e813f5, 2020-09-07)"
   sodipodi:docname="whiteLogo.svg">
  <defs
     id="defs2" />
  <sodipodi:namedview
     id="base"
     pagecolor="#ffffff"
     bordercolor="#666666"
     borderopacity="1.0"
     inkscape:pageopacity="0.0"
     inkscape:pageshadow="2"
     inkscape:zoom="0.35"
     inkscape:cx="400"
     inkscape:cy="560"
     inkscape:document-units="mm"
     inkscape:current-layer="layer1"
     inkscape:document-rotation="0"
     showgrid="false"
     inkscape:window-width="1431"
     inkscape:window-height="1030"
     inkscape:window-x="224"
     inkscape:window-y="0"
     inkscape:window-maximized="0" />
  <metadata
     id="metadata5">
    <rdf:RDF>
      <cc:Work
         rdf:about="">
        <dc:format>image/svg+xml</dc:format>
        <dc:type
           rdf:resource="http://purl.org/dc/dcmitype/StillImage" />
        <dc:title></dc:title>
      </cc:Work>
    </rdf:RDF>
  </metadata>
  <g
     inkscape:label="Layer 1"
     inkscape:groupmode="layer"
     id="layer1">
    <path
       id="rect885-4-7-5-8-4"
       style="fill:#f9f9f9;fill-opacity:1;stroke:none;stroke-width:7.83943"
       d="m 18.037155,42.895622 c -6.26182,0 -11.3026879,5.040849 -11.3026879,11.302658 v 69.04032 c 0,6.26177 5.0408679,11.30266 11.3026879,11.30266 h 21.880017 v 21.22781 L 62.012265,134.54126 H 73.719752 L 73.039411,120.00707 H 15.487317 v -10.66171 h 57.053099 l -0.296595,-6.34503 H 15.487317 V 92.338654 H 126.88768 V 85.993627 H 15.487317 V 75.331913 H 126.88768 V 68.986914 H 15.487317 V 58.32382 H 126.88907 v 37.565436 l 12.57197,0.248885 V 54.198362 c 0,-6.26181 -5.04086,-11.302658 -11.30268,-11.302658 z"
       inkscape:export-xdpi="96"
       inkscape:export-ydpi="96" />
    <path
       id="rect2758-3-9-1-3"
       style="fill:#f9f9f9;fill-opacity:1;stroke-width:0.501745"
       d="m 76.875374,88.020561 c -5.100029,0 -9.205468,4.105412 -9.205468,9.205468 v 56.230801 c 0,5.09997 4.105439,9.20546 9.205468,9.20546 h 68.243316 l 2.55546,2.45562 19.53965,18.77219 v -21.22781 h 23.97721 c 5.10003,0 9.20547,-4.10546 9.20547,-9.20546 V 137.01516 97.226029 c 0,-5.100056 -4.10544,-9.205468 -9.20547,-9.205468 z m 1.456237,14.979769 H 189.73339 v 10.66454 H 78.331611 Z m 0,17.00812 H 189.73339 v 10.66171 H 78.331611 Z m 0,17.00532 h 95.714929 v 0.001 h -26.36958 v 10.66312 H 78.334413 Z"
       inkscape:export-xdpi="96"
       inkscape:export-ydpi="96" />
  </g>
</svg>